<svg viewBox="0 0 512 512" xmlns="http://www.w3.org/2000/svg" xmlns:xlink="http://www.w3.org/1999/xlink"><linearGradient id="a" gradientUnits="userSpaceOnUse" x1="150" x2="234" y1="119.2" y2="264.8"><stop offset="0" stop-color="#fbbf24"/><stop offset=".5" stop-color="#fbbf24"/><stop offset="1" stop-color="#f59e0b"/></linearGradient><clipPath id="b"><path d="m512 306h-208l-35.9-31.4a18.4 18.4 0 0 0 -24.2 0l-35.9 31.4h-208v-306h512z"/></clipPath><symbol id="c" viewBox="0 0 384 384"><circle cx="192" cy="192" fill="url(#a)" r="84" stroke="#f8af18" stroke-miterlimit="10" stroke-width="6"/><path d="m192 61.7v-49.7m0 360v-49.7m92.2-222.5 35-35m-254.4 254.4 35.1-35.1m0-184.4-35-35m254.5 254.5-35.1-35.1m-222.6-92.1h-49.7m360 0h-49.7" fill="none" stroke="#fbbf24" stroke-linecap="round" stroke-miterlimit="10" stroke-width="24"/></symbol><g clip-path="url(#b)"><use height="384" transform="translate(64 100)" width="384" xlink:href="#c"/></g><path d="m128 332h88l40-36 40 36h88" fill="none" stroke="#374151" stroke-linecap="round" stroke-linejoin="round" stroke-width="18"/></svg>